# xmcd CD database file
#
# Track frame offsets:
#	150
#	23513
#	43800
#	67463
#	89663
#
# Disc length: 1525 seconds
#
# Revision: 0
# Processed by: cddbd v1.5.2PL0 Copyright (c) Steve Scherf et al.
# Submitted via: CDex 1.70beta2
#
DISCID=4405f305
DTITLE=市川 由貴 - Run up
DYEAR=2008
DGENRE=New Age
TTITLE0=01-April
TTITLE1=02-Mimosa
TTITLE2=03-Night after Night
TTITLE3=04-Shining day
TTITLE4=05-Tertimbul
EXTD=YEAR: 2008
EXTT0=
EXTT1=
EXTT2=
EXTT3=
EXTT4=
PLAYORDER=
